<svg width="48" height="48" xmlns="http://www.w3.org/2000/svg" xmlns:xlink="http://www.w3.org/1999/xlink" xml:space="preserve" overflow="hidden"><g transform="translate(-270 -412)"><path d="M304.59 441.789 300.997 445.381 300.997 433.759 298.997 433.759 298.997 445.27 295.556 441.773 294.13 443.176 299.325 448.455C299.513 448.645 299.768 448.753 300.034 448.754L300.038 448.754C300.303 448.754 300.558 448.648 300.745 448.461L306.004 443.203 304.59 441.789ZM292.35 439.724 293.764 438.31 288.506 433.052C288.319 432.864 288.065 432.759 287.799 432.759L287.795 432.759C287.528 432.76 287.274 432.867 287.086 433.058L281.89 438.336 283.316 439.738 286.757 436.243 286.757 449.554 288.757 449.554 288.757 436.131 292.35 439.724ZM290.333 449.572 297.4 449.579 297.402 447.579 290.335 447.572 290.333 449.572ZM316.026 441.13C316.026 443.617 315.272 445.628 313.783 447.105 311.332 449.54 307.776 449.59 307.496 449.59L307.484 449.59 302.721 449.585 302.723 447.585 307.491 447.59C307.531 447.59 310.489 447.569 312.385 445.676 313.474 444.588 314.026 443.059 314.026 441.13 314.026 439.948 313.701 438.179 310.896 436.46 309.422 435.557 308.041 435.259 307.517 435.174 306.986 435.087 306.622 434.599 306.685 434.069 306.507 431.974 305.526 430.508 303.982 430.04 302.647 429.636 301.218 430.108 300.337 431.244 300.116 431.531 299.763 431.677 299.396 431.62 299.036 431.565 298.736 431.32 298.61 430.979 297.992 429.314 297.099 427.917 295.955 426.823 294.545 425.475 290.675 422.574 285.204 424.784 282.069 426.051 279.611 429.689 279.611 433.067 279.611 433.444 279.635 433.822 279.682 434.189 279.743 434.673 279.446 435.131 278.981 435.272 278.943 435.284 278.903 435.293 278.865 435.3 277.02 435.764 274 437.157 274 441.298 274 444.443 275.799 446.182 277.308 447.087 277.823 447.396 278.419 447.56 279.029 447.561L285.181 447.567 285.179 449.567 279.028 449.561C278.055 449.56 277.104 449.298 276.278 448.802 274.681 447.844 272 445.595 272 441.298 272 437.583 274.084 434.751 277.623 433.579 277.615 433.409 277.611 433.238 277.611 433.067 277.611 428.863 280.554 424.505 284.456 422.93 289.001 421.093 293.817 422.011 297.338 425.378 298.37 426.364 299.228 427.55 299.897 428.914 301.234 427.945 302.938 427.637 304.562 428.126 306.751 428.79 308.234 430.723 308.615 433.36 309.748 433.642 310.925 434.132 311.941 434.755 314.69 436.438 316.026 438.524 316.026 441.13L316.026 441.13Z" fill="#232F3D" fill-rule="evenodd"/></g></svg>